HIERARCHY
ROOT Hips
{
	OFFSET 0.000000 89.005402 0.000000
	CHANNELS 6 Xposition Yposition Zposition Xrotation Yrotation Zrotation
	JOINT Spine
	{
		OFFSET 0.116900 10.681000 0.373400
		CHANNELS 3 Xrotation Yrotation Zrotation
		JOINT Spine1
		{
			OFFSET 0.000000 13.840401 0.053500
			CHANNELS 3 Xrotation Yrotation Zrotation
			JOINT Spine2
			{
				OFFSET 0.000000 14.712700 -0.366200
				CHANNELS 3 Xrotation Yrotation Zrotation
				JOINT Neck
				{
					OFFSET 0.000000 35.415497 -3.314200
					CHANNELS 3 Xrotation Yrotation Zrotation
					JOINT Head
					{
						OFFSET 0.000000 16.899200 1.218300
						CHANNELS 3 Xrotation Yrotation Zrotation
						JOINT HeadTop_End
						{
							OFFSET 0.000000 22.206207 2.192500
							CHANNELS 3 Xrotation Yrotation Zrotation
							End Site
							{
								OFFSET 0.000000 22.314178 0.000000
							}
						}
					}
				}
				JOINT LeftShoulder
				{
					OFFSET 12.896400 26.716293 -4.548400
					CHANNELS 3 Xrotation Yrotation Zrotation
					JOINT LeftArm
					{
						OFFSET 19.027000 -4.857010 -1.718400
						CHANNELS 3 Xrotation Yrotation Zrotation
						JOINT LeftForeArm
						{
							OFFSET 24.179897 0.000000 0.000000
							CHANNELS 3 Xrotation Yrotation Zrotation
							JOINT LeftHand
							{
								OFFSET 27.156403 0.000000 0.000000
								CHANNELS 3 Xrotation Yrotation Zrotation
								JOINT LeftHandIndex1
								{
									OFFSET 16.441200 0.000000 0.000000
									CHANNELS 3 Xrotation Yrotation Zrotation
									JOINT LeftHandIndex2
									{
										OFFSET 4.821899 0.000000 0.000000
										CHANNELS 3 Xrotation Yrotation Zrotation
										JOINT LeftHandIndex3
										{
											OFFSET 6.386497 0.000000 0.000000
											CHANNELS 3 Xrotation Yrotation Zrotation
											JOINT LeftHandIndex4
											{
												OFFSET 5.188988 0.000000 0.000000
												CHANNELS 3 Xrotation Yrotation Zrotation
												End Site
												{
													OFFSET -0.178703 5.185913 0.000177
												}
											}
										}
									}
								}
								JOINT LeftHandThumb1
								{
									OFFSET 6.534897 -5.032593 5.900300
									CHANNELS 3 Xrotation Yrotation Zrotation
									JOINT LeftHandThumb2
									{
										OFFSET 3.818176 -2.204422 2.204423
										CHANNELS 3 Xrotation Yrotation Zrotation
										JOINT LeftHandThumb3
										{
											OFFSET 3.252098 -1.877594 1.877601
											CHANNELS 3 Xrotation Yrotation Zrotation
											JOINT LeftHandThumb4
											{
												OFFSET 5.251778 -3.032120 3.032117
												CHANNELS 3 Xrotation Yrotation Zrotation
												End Site
												{
													OFFSET 0.000023 6.780014 0.000000
												}
											}
										}
									}
								}
							}
						}
					}
				}
				JOINT RightShoulder
				{
					OFFSET -12.896300 26.716293 -4.548400
					CHANNELS 3 Xrotation Yrotation Zrotation
					JOINT RightArm
					{
						OFFSET -19.027000 -4.857010 -1.718400
						CHANNELS 3 Xrotation Yrotation Zrotation
						JOINT RightForeArm
						{
							OFFSET -24.179897 0.000000 0.000000
							CHANNELS 3 Xrotation Yrotation Zrotation
							JOINT RightHand
							{
								OFFSET -27.156403 0.000000 0.000000
								CHANNELS 3 Xrotation Yrotation Zrotation
								JOINT RightHandThumb1
								{
									OFFSET -6.591202 -4.852203 5.988100
									CHANNELS 3 Xrotation Yrotation Zrotation
									JOINT RightHandThumb2
									{
										OFFSET -3.818176 -2.204422 2.204423
										CHANNELS 3 Xrotation Yrotation Zrotation
										JOINT RightHandThumb3
										{
											OFFSET -3.252098 -1.877594 1.877601
											CHANNELS 3 Xrotation Yrotation Zrotation
											JOINT RightHandThumb4
											{
												OFFSET -5.251778 -3.032120 3.032117
												CHANNELS 3 Xrotation Yrotation Zrotation
												End Site
												{
													OFFSET -0.000023 6.780014 0.000000
												}
											}
										}
									}
								}
								JOINT RightHandIndex1
								{
									OFFSET -16.029404 0.000000 0.000000
									CHANNELS 3 Xrotation Yrotation Zrotation
									JOINT RightHandIndex2
									{
										OFFSET -5.213303 0.000000 0.000000
										CHANNELS 3 Xrotation Yrotation Zrotation
										JOINT RightHandIndex3
										{
											OFFSET -6.386528 0.000000 0.000000
											CHANNELS 3 Xrotation Yrotation Zrotation
											JOINT RightHandIndex4
											{
												OFFSET -5.189026 0.000000 0.000000
												CHANNELS 3 Xrotation Yrotation Zrotation
												End Site
												{
													OFFSET 0.236702 5.183624 0.001972
												}
											}
										}
									}
								}
							}
						}
					}
				}
			}
		}
	}
	JOINT LeftUpLeg
	{
		OFFSET 14.073000 -7.904099 -1.463000
		CHANNELS 3 Xrotation Yrotation Zrotation
		JOINT LeftLeg
		{
			OFFSET -0.109806 -34.073280 4.093200
			CHANNELS 3 Xrotation Yrotation Zrotation
			JOINT LeftFoot
			{
				OFFSET 0.109806 -29.899420 -6.319000
				CHANNELS 3 Xrotation Yrotation Zrotation
				JOINT LeftToeBase
				{
					OFFSET 1.551100 -14.988700 20.535801
					CHANNELS 3 Xrotation Yrotation Zrotation
					JOINT LeftToe_End
					{
						OFFSET 0.221200 0.570800 13.248301
						CHANNELS 3 Xrotation Yrotation Zrotation
						End Site
						{
							OFFSET 0.000000 13.262435 0.000000
						}
					}
				}
			}
		}
	}
	JOINT RightUpLeg
	{
		OFFSET -13.839300 -7.904099 -1.463000
		CHANNELS 3 Xrotation Yrotation Zrotation
		JOINT RightLeg
		{
			OFFSET 0.109694 -34.073219 4.093300
			CHANNELS 3 Xrotation Yrotation Zrotation
			JOINT RightFoot
			{
				OFFSET -0.109694 -29.899384 -6.319200
				CHANNELS 3 Xrotation Yrotation Zrotation
				JOINT RightToeBase
				{
					OFFSET -1.551100 -14.988700 20.535801
					CHANNELS 3 Xrotation Yrotation Zrotation
					JOINT RightToe_End
					{
						OFFSET -0.221200 0.570900 13.248299
						CHANNELS 3 Xrotation Yrotation Zrotation
						End Site
						{
							OFFSET 0.000000 13.262440 0.000000
						}
					}
				}
			}
		}
	}
}
MOTION
Frames: 4
Frame Time: 0.033333
-3.233795 85.173409 -2.493495 -7.227319 -13.815100 3.632972 5.505951 0.984123 -4.629900 -0.255200 0.460257 -1.202016 -0.258983 0.481370 -1.209695 -4.366051 1.630422 -0.528954 -54.732809 16.768963 5.363176 -0.000003 0.000000 -0.000000 -14.585181 12.165632 -7.394559 -40.204587 -2.918992 -39.813907 0.000011 -64.986129 0.000010 26.713804 -9.863643 28.962382 0.357474 4.214056 -15.544102 4.742591 5.745461 -79.060847 0.198055 -1.511909 14.925352 -0.000002 -0.000001 -0.000000 -4.537364 1.706678 18.601373 16.708634 28.024580 -7.986409 -9.296492 22.680401 4.749147 0.000000 0.000001 0.000000 0.533755 -5.523576 9.299744 -34.177812 29.744791 48.237323 0.000002 51.245332 -0.000012 18.714389 -5.782930 -21.078384 -4.747068 7.154660 -8.287300 21.695949 -40.859312 0.038879 0.968051 -3.740914 -18.692659 0.000000 0.000001 -0.000002 0.847798 -4.907866 30.475034 2.055554 -3.864076 56.009938 -0.000005 -0.005359 0.066048 0.000003 -0.000002 0.000002 -15.285885 10.863577 6.103762 31.628315 -3.757467 -3.501371 0.364733 0.269963 -1.622229 -10.607185 -0.000003 0.000001 0.000000 0.000000 -0.000000 -2.684528 -10.804685 -9.449773 30.946986 -2.127562 1.993109 -22.117413 0.058308 -0.916557 -5.638408 0.000012 -0.000000 0.000000 -0.000000 -0.000000 
-3.046252 84.873909 -3.393253 -6.772212 -14.147516 3.233914 6.545737 1.211914 -4.781088 -0.092754 0.538042 -1.039041 -0.095998 0.556257 -1.047248 -3.929594 1.522665 -0.476235 -55.950666 15.384000 5.155043 0.000002 0.000001 0.000000 -13.148529 11.409861 -7.870471 -41.681875 -0.661462 -39.425098 0.000054 -63.421722 0.000057 25.801904 -10.149955 28.067009 0.357468 4.214065 -15.544081 4.742592 5.745453 -79.060819 0.198054 -1.511927 14.925340 -0.000001 -0.000000 0.000001 -4.537358 1.706684 18.601365 16.708615 28.024575 -7.986404 -9.296482 22.680400 4.749145 0.000000 -0.000000 0.000000 0.517469 -5.495527 9.178996 -34.052171 28.777725 48.693720 0.000021 49.547862 -0.000019 18.161400 -5.266166 -21.166659 -4.935477 7.105100 -8.205137 21.559163 -40.886677 0.034854 0.987653 -3.922926 -18.677726 0.000003 -0.000001 0.000002 0.852989 -4.915464 30.587954 2.055556 -3.864077 56.009942 0.000121 -0.034700 0.426213 0.000001 -0.000002 -0.000001 -13.760103 10.495650 5.692867 31.151649 -2.229946 -4.019042 -3.213430 0.132013 -1.484460 -10.359261 0.000000 0.000000 0.000000 -0.000000 0.000000 -4.694387 -10.717432 -8.990809 32.291577 -1.790068 1.936062 -21.884391 0.174524 -1.315421 -5.638407 0.000007 0.000002 0.000000 -0.000001 -0.000000 
-2.598992 84.763222 -3.849646 -6.270720 -14.040190 2.803619 6.745518 0.955854 -4.450877 -0.081699 0.452986 -0.896543 -0.083420 0.468895 -0.904351 -3.512498 1.465966 -0.407687 -55.343715 14.522053 5.005551 0.000000 0.000001 -0.000001 -11.566251 10.907103 -8.629278 -41.661074 1.754228 -39.058905 0.000050 -62.268246 0.000030 25.254160 -10.347015 27.752401 0.357469 4.214054 -15.544092 4.742607 5.745476 -79.060826 0.198052 -1.511919 14.925341 0.000000 0.000000 -0.000000 -4.537341 1.706691 18.601351 16.708591 28.024575 -7.986384 -9.296472 22.680408 4.749145 0.000000 -0.000000 -0.000000 0.564971 -5.606057 9.433420 -33.699272 27.360257 49.866969 -0.000016 48.459509 0.000016 17.805431 -4.786177 -20.829570 -5.826513 6.868544 -7.817430 20.911031 -41.019241 0.014366 1.084422 -4.784353 -18.606849 -0.000001 -0.000001 0.000002 0.877764 -4.951263 31.122566 2.055554 -3.864076 56.009942 0.003216 -0.173587 2.131380 0.000002 -0.000002 0.000001 -11.796025 10.379794 5.086319 28.900556 -1.492664 -4.320140 -6.092187 -0.017013 -1.051181 -8.040840 -0.000001 -0.000001 0.000000 -0.000000 -0.000000 -5.818915 -10.712136 -8.646325 32.500376 -1.819649 1.897810 -21.357670 0.166650 -1.216228 -5.638407 0.000004 0.000000 -0.000000 0.000000 -0.000000 
-2.082658 84.940025 -4.021881 -5.153347 -13.369205 2.767835 6.214193 0.291112 -4.178973 -0.104715 0.244234 -0.827045 -0.104761 0.258530 -0.834242 -3.388714 1.441718 -0.324206 -54.774125 13.923406 4.984326 -0.000002 -0.000000 0.000000 -9.910200 10.626149 -9.517876 -41.148102 4.206719 -38.938116 0.000075 -62.022414 0.000073 24.240929 -9.968159 27.307825 0.359606 4.220485 -15.610428 4.737666 5.744520 -79.011512 0.194434 -1.498264 14.787378 -0.000001 0.000001 0.000000 -4.592624 1.698322 18.562468 16.683915 28.060811 -7.977004 -9.275664 22.675992 4.773867 -0.000000 0.000000 -0.000000 0.673763 -5.998985 9.950660 -32.939376 25.561548 51.091314 -0.000030 48.807849 0.000018 17.320998 -4.536494 -20.309200 -7.314681 6.464844 -7.173039 19.822957 -41.248574 -0.025377 1.246748 -6.227223 -18.486315 -0.000002 -0.000000 0.000001 0.919990 -5.010643 32.017874 2.055553 -3.864077 56.009938 0.017680 -0.405728 4.986750 0.000001 0.000003 -0.000000 -10.232633 10.591329 4.284331 23.998378 -1.836056 -4.226542 -6.849002 -0.047485 -0.516423 -2.918057 0.000001 -0.000000 0.000000 0.000000 0.000000 -6.995589 -10.640821 -8.546823 31.918580 -2.384625 1.880350 -20.356628 0.114577 -0.854264 -5.753370 0.000002 0.000002 -0.000000 -0.000001 -0.000000 
